<svg width="240" height="240" viewBox="0 0 240 240" fill="none" xmlns="http://www.w3.org/2000/svg">
<path d="M192.458 213.124C181.333 210.999 170.666 208.916 159.999 206.874C157.874 206.458 156.374 206.166 153.624 206.083C151.583 205.999 147.249 205.916 147.624 208.124C148.124 209.916 148.708 211.124 152.333 212.208C161.708 214.958 171.416 216.291 181.041 217.666C189.541 218.874 196.041 219.666 203.624 220.291C207.166 220.583 208.583 218.833 208.166 215.583C207.791 212.666 207.458 209.666 206.541 206.874C203.291 196.791 199.791 186.833 196.374 176.791C195.958 175.541 195.708 174.541 194.999 173.124C194.124 171.416 193.583 170.124 191.791 170.624C190.083 171.083 190.166 173.583 190.458 174.833C192.666 185.333 197.583 206.916 197.583 208.124C192.124 204.624 186.999 201.499 182.041 198.083C147.624 174.124 115.208 147.916 89.4161 114.333C68.9994 87.7494 52.0827 59.2077 39.5827 28.0827C38.8327 26.2493 37.9161 24.4577 36.9994 22.7493C35.7911 20.416 34.7494 19.416 33.4994 19.9577C31.2911 21.291 31.7077 23.0827 31.9161 24.541C32.2911 27.4577 33.2911 30.3327 34.2494 33.1243C47.4577 70.3327 68.4577 102.916 93.8327 132.874C119.874 163.624 151.708 187.291 185.666 208.333C187.499 209.374 191.791 212.374 192.458 213.124Z" fill="black"/>
</svg>
